<?xml version="1.0" encoding="utf-8"?>
<!-- Generator: Adobe Illustrator 26.4.1, SVG Export Plug-In . SVG Version: 6.00 Build 0)  -->
<svg version="1.1" id="Layer_1" xmlns="http://www.w3.org/2000/svg" xmlns:xlink="http://www.w3.org/1999/xlink" x="0px" y="0px"
	 viewBox="0 0 72 56.3" style="enable-background:new 0 0 72 56.3;" xml:space="preserve">
<style type="text/css">
	.st0{fill:#FFFFFF;}
	.st1{fill:none;stroke:#FFFFFF;stroke-width:2;stroke-linecap:round;}
</style>
<g>
	<path d="M26.7,37.9L3.1,14.3c-1.9-1.9-1.9-5,0-6.7c1.9-1.9,5-1.9,6.7,0L21.2,19c-1.9-1.9-1.9-5,0-6.7c1.9-1.9,5-1.9,6.7,0l1.6,1.6
		c-1.8-1.9-2.2-5.5-0.5-7.4c1.9-1.9,5-1.9,6.7,0l3.4,3.4c-1.9-1.9-1.9-5,0-6.7c1.9-1.9,5-1.9,6.7,0l3.7,3.4l13.7,13.7
		c1.6,1.6,4.3,5,4.5,12.8c0,1.1,0.5,2.4,1.3,3.2c1.8,1.8,1.8,4.7,0,6.4L58,53.6c-1.4,1.4-3.9,1.4-5.5,0c-0.8-0.8-1.9-1.1-3.1-1.1
		c-3.7,0.2-11.1-0.2-14.5-1.9c-0.8-0.3-1.4-0.8-2.2-1.1l-16.9-4.3c-2.6-0.6-4.2-3.4-3.4-5.9c0.6-2.6,3.4-4.2,5.9-3.4l4,1.1l3.9,1.4
		C26.7,38.5,26.8,38.2,26.7,37.9z"/>
	<path class="st0" d="M36,20.1l-1.1,1.1c0.6,0.6,1.6,0.6,2.2,0s0.6-1.6,0-2.2L36,20.1z M29.7,13.8l-1.1,1.1l0,0L29.7,13.8z
		 M41.6,14.3c0.6,0.6,1.6,0.6,2.2,0s0.6-1.6,0-2.2L41.6,14.3z M27.9,27.9c0.6,0.6,1.6,0.6,2.2,0s0.6-1.6,0-2.2L27.9,27.9z
		 M32.8,49.6l0.5-1.6l0,0L32.8,49.6z M15.9,45.1l0.5-1.6l0,0L15.9,45.1z M18.5,35.8l0.5-1.6l0,0L18.5,35.8z M67.8,32.9h1.6l0,0H67.8
		z M49.5,52.5l0.2,1.6l0,0L49.5,52.5z M35.2,50.8l0.8-1.4l0,0L35.2,50.8z M22.5,36.9l0.6-1.4H23h-0.2L22.5,36.9z M26.3,38.4l0.6-1.4
		l0,0L26.3,38.4z M27.8,36.8L4.2,13.2l-2.2,2.4l23.6,23.6L27.8,36.8z M22.3,13.2c1.3-1.3,3.2-1.3,4.5,0l2.2-2.2
		c-2.6-2.6-6.6-2.6-9.2,0L22.3,13.2z M20.1,10.9c-2.6,2.6-2.6,6.6,0,9.2l2.2-2.2c-1.3-1.3-1.3-3.2,0-4.5L20.1,10.9z M37.1,19
		l-6.3-6.3l-2.2,2.2l6.3,6.3L37.1,19z M30.2,7.5c1.3-1.3,3.2-1.3,4.5,0l2.2-2.2c-2.6-2.6-6.6-2.6-9.2,0L30.2,7.5z M27.9,5.3
		c-1.4,1.4-1.8,3.2-1.6,5c0.2,1.8,1,3.4,2.1,4.7l2.2-2.2C30,12,29.6,11.1,29.4,10C29.2,9,29.6,8,30,7.5L27.9,5.3z M28.6,14.9
		L28.6,14.9l2.2-2.2l0,0L28.6,14.9z M45,4.2l3.4,3.4l2.2-2.2l-3.4-3.4L45,4.2z M43.9,12l-3.4-3.4l-2.2,2.2l3.4,3.4L43.9,12z
		 M40.5,4.2c1.3-1.3,3.2-1.3,4.5,0l2.2-2.2c-2.6-2.6-6.6-2.6-9.2,0L40.5,4.2z M38.2,1.9c-2.6,2.6-2.6,6.6,0,9.2l2.2-2.2
		c-1.3-1.3-1.3-3.2,0-4.5L38.2,1.9z M8.7,8.7l11.4,11.4l2.2-2.2L10.9,6.4L8.7,8.7z M20.1,20.1l7.9,7.9l2.2-2.2l-7.9-7.9L20.1,20.1z
		 M33.2,48l-16.9-4.5l-0.8,3.1l16.9,4.5L33.2,48z M14.1,39.7c0.5-1.8,2.2-2.7,3.9-2.2l0.8-3.1c-3.4-1-6.9,1.1-7.9,4.5L14.1,39.7z
		 M10.9,38.7c-1,3.4,1.1,6.9,4.5,7.9l0.8-3.1c-1.8-0.5-2.7-2.2-2.2-3.9L10.9,38.7z M48.5,7.5l13.7,13.7l2.2-2.2L50.8,5.3L48.5,7.5z
		 M62,21.2c1.3,1.3,3.9,4.3,4,11.7l3.2-0.2c-0.2-8.4-3.2-12-5-14L62,21.2z M67.9,41.4L56.9,52.5l2.2,2.2l11.1-11.1L67.9,41.4z
		 M49.5,50.9c-1.8,0.2-4.5,0-7.1-0.2c-2.7-0.3-5.1-0.8-6.4-1.4l-1.4,2.9c1.9,1,4.8,1.6,7.5,1.8c2.7,0.3,5.6,0.3,7.5,0.2L49.5,50.9z
		 M53.6,52.5c-1.1-1.1-2.7-1.8-4.3-1.6l0.2,3.2c0.8,0,1.4,0.2,1.9,0.6L53.6,52.5z M56.9,52.5c-0.8,0.8-2.2,0.8-3.1,0l-2.4,2.2
		c2.1,2.1,5.6,2.1,7.7,0L56.9,52.5z M67.9,37.3c1.1,1.1,1.1,3.1,0,4.2l2.2,2.2c2.4-2.4,2.4-6.3,0-8.7L67.9,37.3z M66.2,32.9
		c0,1.6,0.6,3.2,1.8,4.3l2.2-2.2c-0.5-0.5-0.8-1.3-1-2.1H66.2z M18,37.3l4,1.1l0.8-3.1l-4-1.1L18,37.3z M22,38.4l3.9,1.4l1.1-3.1
		l-3.9-1.4L22,38.4z M34.9,7.5l3.4,3.4l2.2-2.2l-3.4-3.4L34.9,7.5z M26.8,13.2l1.6,1.6l2.2-2.2l-1.6-1.6L26.8,13.2z M28.6,14.9
		l2.2,2.2l2.2-2.2l-2.2-2.2L28.6,14.9z M30.8,17.2l4,4l2.2-2.2l-4-4L30.8,17.2z M25.9,39.8c1.9,0.8,3.4-1.6,1.9-3.1L25.5,39
		c-1.1-1.1,0.2-2.7,1.4-2.2L25.9,39.8z M32.4,51.2c0.6,0.2,1.1,0.5,1.9,1l1.4-2.9c-0.6-0.3-1.6-1-2.6-1.1L32.4,51.2z M4.2,8.7
		c1.3-1.3,3.2-1.3,4.5,0l2.2-2.2c-2.4-2.6-6.6-2.6-9,0L4.2,8.7z M1.9,6.4c-2.6,2.6-2.6,6.6,0,9.2l2.2-2.2c-1.3-1.3-1.3-3.2,0-4.5
		L1.9,6.4z"/>
</g>
<line class="st1" x1="41.7" y1="31.8" x2="48.1" y2="38.2"/>
<line class="st1" x1="45.9" y1="27.6" x2="52.3" y2="33.9"/>
<line class="st1" x1="50.2" y1="23.3" x2="56.5" y2="29.7"/>
</svg>
