<?xml version="1.0" encoding="utf-8"?>
<!-- Generator: Adobe Illustrator 26.4.1, SVG Export Plug-In . SVG Version: 6.00 Build 0)  -->
<svg version="1.1" id="Layer_1" xmlns="http://www.w3.org/2000/svg" xmlns:xlink="http://www.w3.org/1999/xlink" x="0px" y="0px"
	 viewBox="0 0 50.6 72" style="enable-background:new 0 0 50.6 72;" xml:space="preserve">
<style type="text/css">
	.st0{fill:#FFFFFF;}
</style>
<g>
	<path d="M48.6,1.9H37L25.3,5.8L13.6,1.9H1.9v11.7h15.6c1.2,0,1.9,0.8,1.9,1.9v40.9c0,1.2-0.8,1.9-1.9,1.9H1.9v11.7h11.7l11.7-3.9
		L37,70.1h11.7V58.4H33.1c-1.2,0-1.9-0.8-1.9-1.9V15.6c0-1.2,0.8-1.9,1.9-1.9h15.6V1.9z"/>
	<path class="st0" d="M1.9,1.9V0C0.8,0,0,0.8,0,1.9H1.9z M48.6,1.9h1.9c0-1.2-0.8-1.9-1.9-1.9V1.9z M1.9,13.6H0
		c0,1.2,0.8,1.9,1.9,1.9V13.6z M1.9,58.4v-1.9c-1.2,0-1.9,0.8-1.9,1.9H1.9z M1.9,70.1H0C0,71.2,0.8,72,1.9,72V70.1z M48.6,70.1V72
		c1.2,0,1.9-0.8,1.9-1.9H48.6z M48.6,58.4h1.9c0-1.2-0.8-1.9-1.9-1.9V58.4z M48.6,13.6v1.9c1.2,0,1.9-0.8,1.9-1.9H48.6z M25.3,5.8
		l-0.6,1.8c0.4,0.2,0.8,0.2,1.2,0L25.3,5.8z M37,1.9V0c-0.2,0-0.4,0-0.6,0.2L37,1.9z M13.6,1.9l0.6-1.8C14,0,13.8,0,13.6,0V1.9z
		 M25.3,66.2l0.6-1.8c-0.4-0.2-0.8-0.2-1.2,0L25.3,66.2z M13.6,70.1V72c0.2,0,0.4,0,0.6-0.2L13.6,70.1z M37,70.1l-0.6,1.8
		c0.2,0,0.4,0.2,0.6,0.2V70.1z M3.9,13.6V1.9H0v11.7H3.9z M17.5,11.7H1.9v3.9h15.6V11.7z M17.5,15.6v40.9h3.9V15.6H17.5z M17.5,56.4
		H1.9v3.9h15.6V56.4z M0,58.4v11.7h3.9V58.4H0z M50.6,70.1V58.4h-3.9v11.7H50.6z M48.6,56.4H33.1v3.9h15.6V56.4z M33.1,56.4V15.6
		h-3.9v40.9H33.1z M48.6,11.7H33.1v3.9h15.6V11.7z M46.7,1.9v11.7h3.9V1.9H46.7z M25.9,7.6l11.7-3.9L36.4,0L24.7,3.9L25.9,7.6z
		 M37,3.9h11.7V0H37V3.9z M1.9,3.9h11.7V0H1.9V3.9z M13,3.7l11.7,3.9l1.2-3.7L14.2,0L13,3.7z M1.9,72h11.7v-3.9H1.9V72z M14.2,71.8
		l11.7-3.9l-1.2-3.7L13,68.1L14.2,71.8z M24.7,67.9l11.7,3.9l1.2-3.7l-11.7-3.9L24.7,67.9z M37,72h11.7v-3.9H37V72z M33.1,15.6
		L33.1,15.6v-3.9c-2.1,0-3.9,1.8-3.9,3.9H33.1z M33.1,56.4L33.1,56.4h-3.9c0,2.1,1.8,3.9,3.9,3.9V56.4z M17.5,56.4L17.5,56.4v3.9
		c2.1,0,3.9-1.8,3.9-3.9H17.5z M17.5,15.6L17.5,15.6h3.9c0-2.1-1.8-3.9-3.9-3.9V15.6z"/>
</g>
</svg>
